<?xml version="1.0" standalone="no"?>
<!DOCTYPE svg PUBLIC "-//W3C//DTD SVG 20010904//EN"
 "http://www.w3.org/TR/2001/REC-SVG-20010904/DTD/svg10.dtd">
<svg version="1.0" xmlns="http://www.w3.org/2000/svg"
 width="1290.000000pt" height="1540.000000pt" viewBox="0 0 1290.000000 1540.000000"
 preserveAspectRatio="xMidYMid meet">

<g transform="translate(0.000000,1540.000000) scale(0.100000,-0.100000)"
fill="#000000" stroke="none">
<path d="M6370 15306 c-30 -23 -251 -191 -490 -372 -503 -381 -1181 -897
-1587 -1205 -154 -118 -406 -309 -560 -425 -153 -117 -318 -243 -368 -281 -49
-38 -220 -167 -380 -287 -159 -121 -297 -225 -305 -232 -12 -12 42 -14 341
-14 l356 0 109 83 c60 45 321 243 579 438 259 196 567 429 685 519 118 89 328
247 465 351 138 104 329 249 425 322 554 421 791 597 800 597 11 0 381 -273
1635 -1207 l190 -141 3 514 2 514 80 0 80 0 2 -577 3 -577 377 -281 c207 -154
460 -342 561 -418 l185 -137 336 2 336 3 -77 61 c-215 167 -765 597 -1060 827
l-333 260 0 609 0 608 -427 -2 -428 -3 -5 -308 -5 -307 -440 333 c-242 183
-568 429 -725 548 -157 118 -289 218 -295 221 -5 3 -35 -13 -65 -36z"/>
<path d="M6315 14009 c-124 -12 -290 -60 -407 -119 -356 -176 -609 -514 -669
-895 -15 -98 -15 -286 0 -376 68 -407 341 -754 721 -920 l85 -37 3 -1464 2
-1465 28 -24 c15 -13 96 -79 180 -147 l152 -123 0 1759 0 1760 -57 7 c-357 44
-642 297 -724 640 -28 120 -23 322 11 430 95 301 327 513 634 580 104 23 299
16 400 -14 187 -56 332 -157 445 -310 102 -138 151 -277 158 -453 6 -128 -3
-197 -43 -319 -53 -163 -195 -339 -345 -431 -78 -47 -181 -91 -239 -103 -19
-3 -43 -9 -52 -11 -17 -5 -18 -98 -18 -1770 l0 -1764 168 136 c92 75 206 166
255 202 l87 66 0 67 0 67 -67 53 c-38 30 -71 58 -75 64 -5 5 -7 91 -5 190 l2
179 67 51 67 50 0 140 1 141 -69 68 -70 69 2 175 2 175 70 54 c39 30 96 72
128 94 l58 40 -2 130 -1 129 -129 122 -129 121 0 331 c0 182 4 336 8 342 4 6
46 31 94 57 325 171 559 502 618 874 16 96 13 297 -5 391 -46 242 -144 433
-309 609 -210 223 -477 354 -781 383 -121 11 -121 11 -250 -1z"/>
<path d="M6110 13095 l0 -155 155 0 155 0 0 155 0 155 -155 0 -155 0 0 -155z"/>
<path d="M6530 13095 l0 -155 160 0 160 0 0 155 0 155 -160 0 -160 0 0 -155z"/>
<path d="M6110 12655 l0 -155 155 0 155 0 0 155 0 155 -155 0 -155 0 0 -155z"/>
<path d="M6530 12655 l0 -155 160 0 160 0 0 155 0 155 -160 0 -160 0 0 -155z"/>
<path d="M8719 11208 l0 -1383 -435 -325 -434 -324 0 -188 0 -188 139 0 139 0
243 196 c134 108 364 294 512 412 l267 216 0 1347 c0 1146 -2 1348 -14 1358
-18 15 -407 261 -412 261 -2 0 -4 -622 -5 -1382z"/>
<path d="M4025 12239 c-60 -37 -154 -95 -207 -126 l-98 -58 0 -1642 0 -1643
1040 0 1040 0 0 220 0 220 -825 0 -825 0 0 1550 c0 853 -3 1550 -7 1549 -5 0
-57 -32 -118 -70z"/>
<path d="M4590 10925 l0 -215 215 0 215 0 0 215 0 215 -215 0 -215 0 0 -215z"/>
<path d="M5170 10925 l0 -215 215 0 215 0 0 215 0 215 -215 0 -215 0 0 -215z"/>
<path d="M4597 10534 c-4 -4 -7 -101 -7 -216 l0 -208 215 0 215 0 -2 213 -3
212 -206 3 c-113 1 -208 -1 -212 -4z"/>
<path d="M5177 10534 c-4 -4 -7 -101 -7 -216 l0 -208 215 0 215 0 -2 213 -3
212 -206 3 c-113 1 -208 -1 -212 -4z"/>
<path d="M3572 7233 c-57 -100 -654 -1129 -996 -1718 l-296 -510 311 -3 311
-2 589 296 588 297 100 131 c54 72 201 263 325 425 124 162 224 296 222 298
-2 2 -311 -149 -686 -337 -375 -188 -684 -339 -686 -337 -6 6 441 769 451 771
7 1 69 -211 108 -366 l7 -27 158 76 c86 41 212 101 279 133 l122 58 -25 89
c-13 48 -67 247 -121 441 l-97 352 -313 0 -312 0 -39 -67z"/>
<path d="M5915 7288 c-27 -5 -87 -27 -132 -48 -173 -84 -309 -270 -374 -516
-29 -110 -37 -314 -15 -407 39 -166 144 -284 307 -345 121 -45 199 -54 539
-62 369 -8 403 -14 474 -80 40 -38 41 -40 41 -107 -1 -109 -46 -191 -130 -236
-39 -22 -48 -22 -622 -25 l-582 -3 -119 -167 c-65 -92 -137 -194 -160 -227
l-42 -60 807 -3 c904 -3 905 -3 1041 65 172 86 314 275 373 498 29 111 36 297
15 388 -29 126 -83 204 -186 271 -159 104 -293 133 -675 146 -266 9 -342 18
-406 51 -154 78 -116 290 69 381 l67 33 492 5 492 5 39 55 c21 30 89 126 151
214 62 87 115 165 118 172 4 12 -112 14 -763 13 -432 -1 -791 -5 -819 -11z"/>
<path d="M8045 7288 c-6 -18 -85 -601 -82 -604 2 -2 362 255 517 370 25 18 64
46 87 62 43 30 48 43 57 159 1 20 -6 20 -287 23 -225 2 -288 0 -292 -10z"/>
<path d="M9170 7288 c0 -7 -45 -335 -100 -728 -55 -393 -125 -893 -155 -1110
-31 -217 -58 -407 -61 -422 l-6 -28 856 0 c471 0 856 3 856 8 0 4 14 104 30
222 16 118 30 218 30 223 0 4 -250 7 -555 7 -305 0 -555 4 -555 8 0 5 7 58 15
118 9 60 29 204 45 319 16 116 65 469 110 787 44 317 80 583 80 592 0 14 -32
16 -295 16 -229 0 -295 -3 -295 -12z"/>
<path d="M8265 6765 c-170 -124 -315 -231 -321 -238 -7 -6 -32 -160 -58 -342
-92 -669 -156 -1121 -161 -1152 l-6 -33 295 0 296 0 5 23 c2 12 12 74 20 137
18 135 169 1213 220 1575 19 138 35 251 35 253 0 11 -53 -26 -325 -223z"/>
<path d="M4517 5993 c-201 -252 -410 -531 -409 -544 1 -16 73 -263 113 -386
l21 -63 304 0 c237 0 304 3 304 13 0 6 -47 185 -105 397 -58 212 -119 439
-137 505 -17 66 -35 124 -38 128 -4 5 -28 -18 -53 -50z"/>
<path d="M330 4242 c0 -4 -31 -230 -70 -502 -38 -272 -101 -722 -140 -1000
-39 -278 -80 -567 -90 -643 -11 -76 -20 -140 -20 -142 0 -3 414 -5 920 -5 519
0 920 4 920 9 0 5 13 105 30 222 16 118 30 217 30 222 0 4 -279 7 -620 7 -521
0 -620 2 -620 14 0 18 49 384 56 419 l6 27 289 0 290 0 147 112 c81 61 214
164 297 227 l149 116 -552 3 -552 2 0 28 c1 15 13 117 28 227 l28 200 610 3
610 2 30 225 c16 124 28 228 25 230 -8 9 -1801 5 -1801 -3z"/>
<path d="M2605 4228 c-2 -13 -11 -72 -20 -133 -19 -139 -133 -959 -225 -1610
-38 -275 -70 -508 -70 -518 0 -16 22 -17 294 -17 l293 0 27 193 c15 105 60
435 102 732 41 297 77 551 80 564 5 24 6 23 28 -10 12 -19 157 -261 321 -539
164 -278 301 -509 305 -513 7 -7 82 74 285 308 28 33 105 121 171 196 65 75
162 185 214 245 196 226 293 335 296 332 4 -4 -10 -104 -115 -856 -50 -353
-91 -644 -91 -647 0 -3 132 -5 294 -5 l294 0 6 33 c3 17 33 228 66 467 33 239
67 480 75 535 8 55 42 296 75 535 33 239 69 497 80 573 11 76 20 143 20 148 0
5 -122 9 -294 9 l-294 0 -464 -531 c-254 -292 -471 -541 -480 -553 -12 -15
-20 -18 -27 -10 -11 10 -34 48 -430 717 l-224 377 -294 0 -293 0 -5 -22z"/>
<path d="M5946 4228 c-3 -13 -26 -169 -50 -348 -25 -179 -79 -566 -120 -860
-41 -294 -91 -649 -111 -788 -19 -139 -35 -259 -35 -267 0 -13 110 -15 852
-13 l852 3 28 200 c15 110 27 212 28 228 l0 27 -555 0 -555 0 5 23 c3 12 55
382 116 822 61 440 117 841 124 890 7 50 11 93 8 98 -2 4 -134 7 -293 7 l-290
0 -4 -22z"/>
<path d="M8867 4243 c-3 -5 -119 -206 -259 -448 -140 -242 -337 -582 -438
-755 -100 -173 -241 -416 -313 -540 -72 -124 -172 -297 -223 -385 l-94 -160
310 -3 309 -2 588 294 588 294 320 417 c176 230 324 424 328 431 9 16 -71 -22
-797 -384 -313 -155 -570 -281 -572 -279 -5 5 443 772 451 772 4 0 25 -65 47
-145 21 -80 45 -168 53 -197 l15 -52 43 18 c23 11 148 71 278 134 l236 115
-57 208 c-32 115 -85 310 -119 434 -34 123 -65 228 -67 232 -7 10 -621 11
-627 1z"/>
<path d="M10745 4238 c-2 -7 -8 -49 -14 -93 -9 -71 -133 -959 -256 -1839 -25
-175 -45 -327 -45 -337 0 -18 14 -19 295 -19 250 0 295 2 295 14 0 8 20 162
45 343 l45 328 48 45 c26 25 110 102 187 171 77 69 356 321 620 560 264 239
577 521 695 628 118 107 217 198 218 203 2 4 -180 8 -405 8 l-408 0 -196 -178
c-107 -97 -265 -240 -350 -316 -85 -77 -181 -164 -214 -194 l-60 -54 -2 28
c-2 16 19 180 46 364 26 184 46 338 44 343 -2 4 -135 7 -294 7 -223 0 -291 -3
-294 -12z"/>
<path d="M11648 2984 l-237 -206 17 -27 c9 -15 136 -201 282 -414 l265 -386
384 -1 383 0 -18 28 c-9 15 -126 185 -257 377 -132 193 -304 442 -381 555
-195 286 -190 279 -196 279 -3 0 -112 -92 -242 -205z"/>
<path d="M9782 2948 c-51 -65 -321 -413 -379 -489 l-42 -55 67 -225 68 -224
307 -3 c169 -1 307 1 307 5 0 12 -278 1035 -283 1039 -2 2 -23 -19 -45 -48z"/>
<path d="M5325 1308 l0 -83 98 -3 97 -3 0 86 0 85 -98 0 -98 0 1 -82z"/>
<path d="M5614 1377 c-3 -8 -4 -45 -2 -83 l3 -69 98 -3 97 -3 0 86 0 85 -95 0
c-71 0 -97 -3 -101 -13z"/>
<path d="M7370 1141 c-87 -28 -136 -57 -195 -116 -93 -94 -138 -206 -137 -345
1 -144 46 -254 144 -347 96 -90 192 -126 338 -126 119 1 196 24 283 86 97 70
96 65 30 136 -32 33 -64 61 -71 61 -6 0 -32 -16 -58 -35 -196 -150 -454 -20
-454 229 0 168 112 288 269 288 74 -1 123 -17 193 -67 44 -32 47 -33 60 -15 7
10 35 44 63 75 l50 58 -35 29 c-45 38 -110 71 -179 92 -75 22 -229 21 -301 -3z"/>
<path d="M4140 686 l0 -466 213 0 c239 0 302 10 401 63 150 80 236 226 236
403 0 206 -122 372 -320 436 -56 18 -98 21 -297 26 l-233 5 0 -467z m495 247
c50 -26 86 -65 117 -123 31 -61 33 -184 2 -250 -22 -48 -73 -103 -115 -125
-39 -21 -146 -36 -224 -33 l-70 3 -3 279 -2 278 127 -4 c106 -3 135 -7 168
-25z"/>
<path d="M5163 828 c4 -333 8 -362 50 -445 36 -68 126 -139 202 -158 173 -42
346 -10 440 83 103 101 115 158 115 541 l0 301 -100 0 -100 0 0 -277 c0 -153
-5 -298 -11 -323 -23 -103 -88 -155 -194 -154 -77 1 -133 30 -166 88 -23 40
-24 48 -29 351 l-5 310 -103 3 -104 3 5 -323z"/>
<path d="M6170 1060 l0 -90 245 -2 245 -3 -255 -297 -255 -296 0 -76 0 -76
390 0 391 0 -3 88 -3 87 -252 5 -252 5 255 297 255 297 -3 73 -3 73 -377 3
-378 2 0 -90z"/>
<path d="M8057 1143 c-4 -3 -7 -213 -7 -465 l0 -458 355 0 355 0 0 90 0 90
-250 0 -250 0 0 100 0 100 220 0 221 0 -3 88 -3 87 -217 3 -218 2 0 95 0 95
250 0 251 0 -3 88 -3 87 -346 3 c-190 1 -348 -1 -352 -5z"/>
<path d="M387 722 c-23 -25 -22 -69 2 -82 13 -7 531 -10 1605 -10 1573 0 1586
0 1606 20 24 24 25 39 6 66 -14 19 -44 19 -1609 22 -1536 2 -1594 2 -1610 -16z"/>
<path d="M9302 724 c-12 -8 -22 -26 -22 -39 0 -58 -102 -55 1630 -55 872 0
1590 4 1596 8 6 4 16 17 23 30 10 19 8 26 -13 47 l-25 25 -1583 0 c-1417 0
-1586 -2 -1606 -16z"/>
</g>
</svg>
